<svg width="60" height="70" xmlns="http://www.w3.org/2000/svg">
 <g>
  <title>background</title>
  <rect x="-1" y="-1" width="62" height="72" id="canvas_background" fill="none"/>
 </g>

 <g>
  <title>Layer 1</title>
  <path d="m24.05967,20.7512c0,0 -0.0107,0 -0.0214,0c-0.09631,0 -0.42804,0.01312 -0.60996,0.06558c-0.20332,0.05247 -0.40663,0.13116 -0.58855,0.26232c-0.26752,0.19673 -0.49224,0.47216 -0.70626,0.76071c-0.17122,0.23608 -0.31033,0.51152 -0.44944,0.78695c-0.05351,0.10492 -0.12841,0.20985 -0.16052,0.32789c0,0.01311 -0.0107,0.02623 -0.0107,0.05246c-3.34939,0.01312 -6.68808,0.03935 -10.03748,0.13116c-2.01178,0.07869 -3.98075,1.32469 -5.07224,3.41009c-0.47085,0.6689 -0.77047,1.46896 -0.90958,2.3346c-0.78117,2.59692 -0.44944,5.4168 -0.52435,8.11864c-0.06421,2.15098 0.29963,4.32819 1.1022,6.24309c0.93098,1.79686 2.3114,3.38386 4.08776,3.71175c2.48261,0.62956 5.04014,0.27543 7.55486,0.38036c1.27341,0 2.53612,0 3.80953,0c0,0.01312 0.01071,0.02623 0.01071,0.02623c0.0321,0.11804 0.10701,0.22297 0.16051,0.32789c0.13911,0.26232 0.27822,0.55086 0.44944,0.78695c0.20332,0.28854 0.43874,0.56398 0.70626,0.76071c0.18192,0.13116 0.38523,0.20985 0.58855,0.26232c0.18192,0.05246 0.51365,0.06558 0.60996,0.06558c0.0428,0.01311 0.0856,0 0.11771,-0.02624s0.0428,-0.05246 0.0428,-0.11804s0,-0.09181 -0.0321,-0.2492s-0.11771,-0.43282 -0.20332,-0.68201s-0.23542,-0.60333 -0.33173,-0.81318c-0.0642,-0.14427 -0.10701,-0.2492 -0.16051,-0.34101c1.64794,0 3.29589,0 4.95453,0c0.0107,0.01312 0.0107,0.01312 0.0214,0.02623c0.04281,0.05246 0.09631,0.11804 0.20332,0.15739c0.10701,0.03935 0.10701,0.03935 0.42804,0.05246c0.32103,0.02623 1.1343,0.01312 1.36972,0s0.27822,-0.02623 0.39594,-0.07869c0.0963,-0.03935 0.16051,-0.06558 0.18191,-0.15739c2.51472,0 5.02944,0 7.54416,-0.01312c0.09631,0.03935 0.11771,0.02623 0.41734,0.05247c0.32103,0.02623 1.1343,0.01311 1.38042,0c0.19262,-0.01312 0.25682,-0.02624 0.34243,-0.05247c2.07598,-0.01311 4.15197,-0.03934 6.22795,-0.07869c1.45533,0 2.89995,-1.10172 3.3815,-2.81988c1.24131,-3.76422 1.2199,-7.93502 1.09149,-11.93532c-0.16051,-2.61003 -0.43874,-5.36434 -1.59444,-7.62024c-1.03799,-1.79686 -3.02836,-1.84932 -4.65491,-1.83621c-1.53023,-0.01311 -3.06047,-0.02623 -4.5907,-0.02623c-0.0535,-0.01311 -0.11771,-0.01311 -0.22472,-0.02623c-0.23542,-0.01312 -1.05939,-0.02623 -1.38042,0c-0.21402,0.01312 -0.27822,0.01312 -0.34243,0.02623c-1.95827,0 -3.91654,0 -5.87482,0c-0.57785,0 -1.1664,0 -1.74425,0.01312c-0.0107,-0.09181 -0.08561,-0.11804 -0.18192,-0.15739c-0.11771,-0.05246 -0.16051,-0.06558 -0.39593,-0.0787s-1.04869,-0.02623 -1.36972,0c-0.32103,0.02624 -0.33173,0.01312 -0.42804,0.05247s-0.16051,0.10492 -0.20332,0.15739c-0.0107,0.01311 -0.0214,0.02623 -0.0214,0.03934c-1.64794,0 -3.29589,0 -4.95453,0.01312c0.0535,-0.10493 0.10701,-0.20985 0.17121,-0.35413c0.09631,-0.22296 0.24612,-0.56397 0.33173,-0.81317c0.08561,-0.2492 0.17122,-0.52463 0.20332,-0.68202s0.0428,-0.18362 0.0321,-0.2492c-0.0107,-0.06558 -0.0214,-0.09181 -0.0428,-0.11804c-0.0214,-0.01312 -0.05351,-0.02623 -0.07491,-0.02623c-0.0107,-0.05246 -0.0214,-0.05246 -0.0214,-0.05246l0,0l0,-0.00001zm5.62869,2.22968c0.06421,0 0.12841,0 0.19262,0c-0.09631,0 -0.19262,0 -0.28893,0c0.03211,0.01312 0.06421,0.01312 0.09631,0zm17.29272,0.97056c0.42804,-0.01311 0.90958,0.06558 1.1664,0.22297c0.63136,0.39347 1.01659,1.00991 1.16641,1.87555c0.0535,0.28855 0.16051,0.69514 0.25682,0.9181c0.26752,0.65579 0.52435,1.61324 0.50294,1.90178l-0.0214,0.26232l-0.21402,-0.2492c-0.11771,-0.13116 -0.31032,-0.52463 -0.43874,-0.85252c-0.72766,-1.95425 -1.69075,-3.0822 -3.16747,-3.72487c-0.12842,-0.05247 -0.12842,-0.06558 -0.01071,-0.17051c0.12842,-0.11804 0.42804,-0.18362 0.75977,-0.18362l0,0zm-22.94281,0.15739c0.13911,0 0.29962,0 0.47084,0c1.1664,0 3.11397,0.03935 5.15785,0.09181l1.45533,0.03935l0.56715,1.0886c0.31033,0.60333 0.57785,1.14107 0.58855,1.21977c0.0214,0.13116 0.0107,0.13116 -0.43874,0.11804c-0.25682,0 -0.90958,-0.02623 -1.46603,-0.05246c-1.55163,-0.06558 -3.94864,-0.38036 -5.46818,-0.69514l-0.60995,-0.13115l-0.19262,-0.36724c-0.10701,-0.20986 -0.31033,-0.56398 -0.43874,-0.80006s-0.25682,-0.44594 -0.26752,-0.48529c0,-0.01311 0.23542,-0.01311 0.64205,-0.02623l0,0l0,0l0.00001,0zm-13.6437,0.06558c0.10701,0 0.23542,0 0.38523,0c1.54094,0.01312 1.81916,0.15739 1.23061,0.64267c-0.34243,0.28855 -2.53612,1.9149 -3.435,2.55757c-0.75977,0.53775 -1.0594,0.85252 -1.39112,1.45585c-0.13912,0.23608 -0.34243,0.49839 -0.46014,0.56397c-0.22472,0.13116 -0.56715,0.17051 -0.64206,0.06558c-0.0214,-0.02623 -0.0428,-0.26231 -0.0428,-0.52463c0,-0.51151 0.12841,-0.87875 0.57785,-1.7575c0.37453,-0.72137 1.09149,-1.73128 1.53023,-2.12475c0.22472,-0.19674 0.64206,-0.48528 0.94168,-0.62956c0.44944,-0.22297 0.52435,-0.2492 1.30552,-0.2492l0,0zm23.27454,0.10493c0.17122,0 0.44944,0.01311 0.88818,0.02623c3.60622,0.10492 5.94972,0.20985 5.98183,0.2492c0.0535,0.06558 0.18191,1.07549 0.18191,1.37715c0,0.47216 0.03211,0.45905 -1.30551,0.55086c-0.89888,0.05246 -4.29108,0.18362 -5.09365,0.19674c-0.07491,0 -0.16051,-0.19674 -0.50294,-1.10173c-0.22472,-0.60332 -0.41734,-1.15418 -0.43874,-1.20664c-0.02141,-0.06558 -0.0107,-0.09181 0.28892,-0.09181l0,0zm9.0209,0.62955c0.0749,0 0.17121,0 0.29962,0.01312c0.48154,0.05246 1.62654,0.2492 1.69075,0.28854c0.13911,0.10493 -0.55645,0.40659 -1.41252,0.61644c-0.63136,0.15739 -0.70627,0.17051 -0.86678,0.09181c-0.14981,-0.06558 -0.17121,-0.28854 -0.08561,-0.62955c0.07491,-0.27543 0.13911,-0.36724 0.37454,-0.38036l0,0zm-25.54315,0.4984c0.20332,0 5.88552,1.53454 6.87,1.84932c0.66346,0.22297 1.88337,0.72137 2.70734,1.12795c1.88337,0.91811 2.84645,1.21977 3.78814,1.21977c0.72766,0 0.75976,0.02623 1.35901,0.80006l0.60996,0.80006l0,3.96095l0,3.97407l-0.59925,0.77382l-0.58856,0.77383l-1.1557,0.0787c-0.90958,0.06558 -1.41252,0.20985 -2.39701,0.68201c-2.46122,1.1673 -4.05566,1.7444 -7.04122,2.53134c-1.66935,0.43282 -3.15678,0.82629 -3.31729,0.87876c-0.23542,0.06557 -0.34243,-0.03935 -0.54575,-0.52463c-0.31032,-0.7476 -0.99518,-3.37075 -1.1878,-4.56428c-0.42804,-2.62315 -0.39594,-7.30546 0.0642,-9.60072c0.43874,-2.15098 1.21991,-4.76101 1.43393,-4.76101l0,0zm30.51908,0.82629c0.36384,-0.02623 0.47084,0.36724 0.86678,1.27223c1.08079,2.47887 1.40182,4.60362 1.30551,8.52523c-0.0749,3.08219 -0.28892,4.26261 -1.1664,6.42671c-0.75977,1.88866 -0.78117,1.90178 -1.89406,1.24599c-0.50295,-0.30166 -1.26272,-0.69513 -1.68005,-0.89187s-0.75977,-0.38035 -0.75977,-0.40659s0.20332,-0.56397 0.46014,-1.18041c0.79187,-1.9149 1.04869,-3.44944 1.03799,-6.13817c-0.0107,-2.68872 -0.23542,-4.03964 -1.03799,-5.96766c-0.26752,-0.64267 -0.46014,-1.18041 -0.43874,-1.20664s0.80257,-0.44594 1.74426,-0.94434c0.84537,-0.45905 1.27341,-0.72136 1.56233,-0.73448l0,0l0,0zm-41.43404,14.54535c0.05351,0 0.11771,0 0.19262,0.02623c0.39593,0.11804 0.44944,0.17051 0.78117,0.72137c0.39593,0.65578 0.60995,0.87875 1.58374,1.57388c1.44462,1.02303 3.38149,2.50511 3.4457,2.64938c0.14981,0.30166 -0.0321,0.34101 -1.35902,0.36724c-1.1022,0.01312 -1.30551,0 -1.60514,-0.13115c-1.00589,-0.44594 -1.79776,-1.28535 -2.55753,-2.6625c-0.55644,-1.02302 -0.68486,-1.39027 -0.68486,-1.95424c0,-0.40659 0.04281,-0.57709 0.20332,-0.59021l0,0zm43.80965,0.4197l0.0214,0.23609c0.02141,0.27543 -0.25682,1.3378 -0.49224,1.86243c-0.08561,0.19674 -0.20332,0.61644 -0.25682,0.93122c-0.22472,1.33781 -1.0701,2.1641 -2.17229,2.13787c-0.22472,0 -0.49225,-0.03935 -0.59926,-0.06558s-0.25682,-0.10493 -0.33173,-0.14428c-0.11771,-0.07869 -0.11771,-0.09181 0.06421,-0.18362c0.85608,-0.4197 1.32692,-0.77382 1.77636,-1.32469c0.53504,-0.65578 0.87747,-1.25911 1.31621,-2.34771c0.17122,-0.4197 0.38524,-0.83941 0.48154,-0.93122l0.19262,-0.1705l0,-0.00001zm-15.82669,2.45265l0.93098,0.01311c1.1343,0.01312 3.3601,0.10493 4.5693,0.19674c0.71697,0.05246 0.89888,0.07869 0.94169,0.15739c0.08561,0.13115 0.07491,0.62955 -0.0214,1.23288l-0.08561,0.51151l-0.21402,0.03935c-0.20332,0.03934 -2.63243,0.13115 -5.55379,0.19673c-1.01659,0.02623 -1.43393,0.01312 -1.42322,-0.02623c0.0107,-0.03935 0.20331,-0.57709 0.43873,-1.19353l0.41734,-1.12795l0,0zm-2.76084,0.01311c0.50294,0 0.82397,0.02623 0.82397,0.0787c0,0.07869 -1.02729,2.11163 -1.1343,2.2559c-0.05351,0.06558 -1.25201,0.10493 -6.44197,0.20985l-1.35902,0.02624l0.19262,-0.3279c0.10701,-0.18362 0.32103,-0.56397 0.47084,-0.85252c0.17122,-0.32789 0.32103,-0.53775 0.37454,-0.55086c0.52434,-0.14427 2.54682,-0.47217 3.79883,-0.61644c1.1129,-0.13116 2.43981,-0.20985 3.27449,-0.22297l0,0zm11.19318,0.69514c0.19262,0 0.47084,0.06558 0.84538,0.1705c0.94168,0.26232 1.41252,0.51152 1.10219,0.60333c-0.29962,0.07869 -1.1878,0.20985 -1.62654,0.24919l-0.47084,0.03935l-0.09631,-0.18362c-0.0535,-0.10492 -0.10701,-0.28854 -0.12841,-0.40659c-0.0428,-0.32789 0.0535,-0.47216 0.37453,-0.47216l0,0z" fill="#222" id="svg_1" stroke="null" transform="rotate(135 28.22056388854981,35.16141128540039) "/>
 </g>
</svg>