<svg width="60" height="70" xmlns="http://www.w3.org/2000/svg">
 <g>
  <title>background</title>
  <rect fill="none" id="canvas_background" height="72" width="62" y="-1" x="-1"/>
 </g>

 <g>
  <title>Layer 1</title>
  <path stroke="null" transform="rotate(-90 28.220565795898448,35.1614112854004) " id="svg_1" fill="#222" d="m24.059668,20.751204c0,0 -0.010701,0 -0.021402,0c-0.096308,0 -0.428038,0.013116 -0.609954,0.065579c-0.203318,0.052464 -0.406636,0.131157 -0.588552,0.262315c-0.267524,0.196736 -0.492243,0.472166 -0.706262,0.760713c-0.171215,0.236083 -0.310327,0.511515 -0.449439,0.786944c-0.053505,0.104926 -0.128411,0.209852 -0.160514,0.327893c0,0.013116 -0.010701,0.026231 -0.010701,0.052464c-3.349394,0.013114 -6.688088,0.039346 -10.037482,0.131157c-2.011777,0.078693 -3.98075,1.324688 -5.072246,3.410091c-0.470841,0.668901 -0.770468,1.468961 -0.90958,2.334601c-0.781169,2.596915 -0.449439,5.416798 -0.524346,8.11864c-0.064206,2.15098 0.299626,4.328192 1.102197,6.24309c0.930982,1.796856 2.311403,3.383859 4.087759,3.711753c2.482618,0.629555 5.040143,0.27543 7.554864,0.380356c1.273412,0 2.536123,0 3.809535,0c0,0.013116 0.010701,0.02623 0.010701,0.02623c0.032103,0.118042 0.107009,0.222967 0.160514,0.327893c0.139112,0.262315 0.278224,0.550861 0.449439,0.786944c0.203318,0.288546 0.438739,0.563978 0.706262,0.760714c0.181916,0.131157 0.385234,0.209852 0.588552,0.262315c0.181916,0.052462 0.513645,0.065579 0.609954,0.065579c0.042804,0.013116 0.085608,0 0.11771,-0.026231s0.042804,-0.052463 0.042804,-0.118042s0,-0.09181 -0.032103,-0.249199s-0.11771,-0.432819 -0.203318,-0.682018s-0.235421,-0.603324 -0.331729,-0.813176c-0.064206,-0.144273 -0.107009,-0.249199 -0.160514,-0.341009c1.647945,0 3.29589,0 4.954535,0c0.010701,0.013116 0.010701,0.013116 0.021402,0.026231c0.042804,0.052463 0.096308,0.118042 0.203318,0.157389c0.107009,0.039347 0.107009,0.039347 0.428038,0.052463c0.321028,0.026231 1.1343,0.013116 1.36972,0s0.278224,-0.026231 0.395935,-0.078696c0.096308,-0.039347 0.160514,-0.065579 0.181916,-0.157388c2.514721,0 5.029442,0 7.544163,-0.013117c0.096308,0.039347 0.11771,0.026231 0.417337,0.052463c0.321028,0.026231 1.1343,0.013116 1.380421,0c0.192617,-0.013116 0.256823,-0.026231 0.34243,-0.052463c2.075982,-0.013116 4.151965,-0.039347 6.227947,-0.078694c1.455328,0 2.899955,-1.101722 3.381497,-2.819883c1.241309,-3.764216 1.219907,-7.935019 1.091496,-11.935318c-0.160514,-2.610031 -0.438739,-5.364335 -1.59444,-7.620242c-1.037991,-1.796856 -3.028366,-1.849319 -4.654909,-1.836203c-1.530234,-0.013116 -3.060469,-0.026231 -4.590703,-0.026231c-0.053505,-0.013116 -0.11771,-0.013116 -0.22472,-0.026231c-0.235421,-0.013116 -1.059393,-0.026231 -1.380421,0c-0.214019,0.013116 -0.278224,0.013116 -0.34243,0.026231c-1.958272,0 -3.916544,0 -5.874816,0c-0.577851,0 -1.166402,0 -1.744253,0.013116c-0.010701,-0.09181 -0.085608,-0.118042 -0.181916,-0.157389c-0.11771,-0.052463 -0.160514,-0.065579 -0.395935,-0.078694s-1.048692,-0.026231 -1.36972,0c-0.321028,0.026231 -0.331729,0.013116 -0.428038,0.052463s-0.160514,0.104926 -0.203318,0.157389c-0.010701,0.013116 -0.021402,0.026231 -0.021402,0.039347c-1.647945,0 -3.29589,0 -4.954535,0.013116c0.053505,-0.104926 0.107009,-0.209852 0.171215,-0.354125c0.096308,-0.222967 0.246122,-0.563977 0.331729,-0.813176c0.085608,-0.249199 0.171215,-0.524629 0.203318,-0.682018s0.042804,-0.18362 0.032103,-0.249199c-0.010701,-0.065579 -0.021402,-0.09181 -0.042804,-0.118042c-0.021402,-0.013116 -0.053505,-0.026231 -0.074907,-0.026231c-0.010701,-0.052463 -0.021402,-0.052463 -0.021402,-0.052463l0,0zm5.628695,2.229675c0.064206,0 0.128411,0 0.192617,0c-0.096308,0 -0.192617,0 -0.288925,0c0.032103,0.013116 0.064206,0.013116 0.096308,0zm17.29272,0.970564c0.428038,-0.013116 0.90958,0.065579 1.166402,0.222967c0.631355,0.393472 1.016589,1.009912 1.166402,1.87555c0.053505,0.288546 0.160514,0.695135 0.256823,0.918101c0.267524,0.655787 0.524346,1.613237 0.502944,1.901781l-0.021402,0.262315l-0.214019,-0.249199c-0.11771,-0.131157 -0.310327,-0.524629 -0.438739,-0.852523c-0.727664,-1.954244 -1.690749,-3.082198 -3.167478,-3.724869c-0.128411,-0.052463 -0.128411,-0.065579 -0.010701,-0.170505c0.128411,-0.118042 0.428038,-0.18362 0.759767,-0.18362l0,0zm-22.942816,0.157389c0.139112,0 0.299626,0 0.470841,0c1.166402,0 3.113974,0.039347 5.157853,0.09181l1.455328,0.039347l0.56715,1.088606c0.310327,0.603324 0.577851,1.141069 0.588552,1.219765c0.021402,0.131157 0.010701,0.131157 -0.438739,0.118042c-0.256823,0 -0.90958,-0.026231 -1.466029,-0.052463c-1.551636,-0.065579 -3.948647,-0.380358 -5.468181,-0.695135l-0.609954,-0.131157l-0.192617,-0.367241c-0.107009,-0.209852 -0.310327,-0.563977 -0.438739,-0.80006s-0.256823,-0.445935 -0.267524,-0.485282c0,-0.013114 0.235421,-0.013114 0.642056,-0.02623l0,0l0,-0.000001zm-13.643699,0.065579c0.107009,0 0.235421,0 0.385234,0c1.540935,0.013116 1.81916,0.157389 1.230608,0.642671c-0.34243,0.288546 -2.536123,1.914897 -3.435002,2.557568c-0.759767,0.537745 -1.059393,0.852523 -1.391122,1.455847c-0.139112,0.236083 -0.34243,0.498398 -0.46014,0.563977c-0.22472,0.131157 -0.56715,0.170506 -0.642056,0.065579c-0.021402,-0.02623 -0.042804,-0.262315 -0.042804,-0.524629c0,-0.511514 0.128411,-0.878753 0.577851,-1.757508c0.374533,-0.721365 1.091496,-1.731277 1.530234,-2.124749c0.22472,-0.196736 0.642056,-0.485281 0.941683,-0.629555c0.449439,-0.222967 0.524346,-0.249199 1.305515,-0.249199l0,0zm23.274545,0.104926c0.171215,0 0.449439,0.013116 0.888178,0.026231c3.606217,0.104926 5.949723,0.209852 5.981826,0.249199c0.053505,0.065579 0.181916,1.07549 0.181916,1.377152c0,0.472166 0.032103,0.459051 -1.305515,0.550861c-0.898879,0.052463 -4.291077,0.18362 -5.093648,0.196736c-0.074907,0 -0.160514,-0.196736 -0.502944,-1.101722c-0.22472,-0.603324 -0.417337,-1.154185 -0.438739,-1.206648c-0.021402,-0.065579 -0.010701,-0.09181 0.288925,-0.09181l0,0zm9.020893,0.629557c0.074907,0 0.171215,0 0.299626,0.013114c0.481542,0.052464 1.626543,0.2492 1.690749,0.288546c0.139112,0.104926 -0.556449,0.406588 -1.412524,0.61644c-0.631355,0.157389 -0.706262,0.170505 -0.866776,0.09181c-0.149813,-0.065579 -0.171215,-0.288546 -0.085608,-0.629555c0.074907,-0.27543 0.139112,-0.367241 0.374533,-0.380356l0,0.000001zm-25.543145,0.498398c0.203318,0 5.885517,1.534541 6.870004,1.849319c0.663458,0.222966 1.883365,0.721365 2.707338,1.127953c1.883365,0.918101 2.84645,1.219763 3.788133,1.219763c0.727664,0 0.759767,0.026231 1.359019,0.80006l0.609954,0.80006l0,3.96095l0,3.974069l-0.599253,0.773828l-0.588552,0.773828l-1.155702,0.078694c-0.90958,0.065579 -1.412524,0.209852 -2.397011,0.682018c-2.461216,1.1673 -4.055656,1.744393 -7.041219,2.531337c-1.669347,0.432819 -3.156777,0.826291 -3.317291,0.878754c-0.235421,0.065579 -0.34243,-0.039347 -0.545748,-0.524629c-0.310327,-0.747597 -0.995187,-3.370744 -1.187804,-4.564276c-0.428038,-2.623147 -0.395935,-7.305464 0.064206,-9.600718c0.438739,-2.15098 1.219907,-4.761012 1.433926,-4.761012l0,0zm30.519082,0.826291c0.363832,-0.026231 0.470841,0.367241 0.866776,1.272226c1.080795,2.478874 1.401823,4.603623 1.305515,8.525227c-0.074907,3.082198 -0.288925,4.262614 -1.166402,6.42671c-0.759767,1.888664 -0.781169,1.901781 -1.894066,1.245995c-0.502944,-0.301662 -1.262711,-0.695134 -1.680048,-0.89187s-0.759767,-0.380356 -0.759767,-0.406589s0.203318,-0.563977 0.46014,-1.180416c0.79187,-1.914897 1.048692,-3.449438 1.037991,-6.138164c-0.010701,-2.688726 -0.235421,-4.039646 -1.037991,-5.967659c-0.267524,-0.642671 -0.46014,-1.180416 -0.438739,-1.206648s0.802571,-0.445935 1.744253,-0.944333c0.845374,-0.459051 1.273412,-0.721365 1.562337,-0.734481l0,0l0,0.000001zm-41.434041,14.545349c0.053505,0 0.11771,0 0.192617,0.02623c0.395935,0.118042 0.449439,0.170506 0.781169,0.721365c0.395935,0.655787 0.609954,0.878754 1.583739,1.573888c1.444627,1.023029 3.381497,2.505107 3.445703,2.649378c0.149813,0.301662 -0.032103,0.34101 -1.359019,0.367241c-1.102197,0.013117 -1.305515,0 -1.605141,-0.131157c-1.005888,-0.445934 -1.797758,-1.285342 -2.557525,-2.662494c-0.556449,-1.023027 -0.68486,-1.390268 -0.68486,-1.954243c0,-0.406589 0.042804,-0.577092 0.203318,-0.590208l0,0zm43.80965,0.419702l0.021402,0.236085c0.021402,0.27543 -0.256823,1.337804 -0.492243,1.862433c-0.085608,0.196736 -0.203318,0.61644 -0.256823,0.931218c-0.22472,1.337805 -1.070094,2.164096 -2.172291,2.137865c-0.22472,0 -0.492243,-0.039347 -0.599253,-0.065579s-0.256823,-0.104926 -0.331729,-0.144273c-0.11771,-0.078696 -0.11771,-0.09181 0.064206,-0.18362c0.856075,-0.419703 1.326917,-0.773828 1.776356,-1.324689c0.535047,-0.655787 0.877477,-1.259112 1.316216,-2.347716c0.171215,-0.419703 0.385234,-0.839407 0.481542,-0.931217l0.192617,-0.170506zm-15.826691,2.452642l0.930982,0.013117c1.1343,0.013116 3.360095,0.104926 4.569302,0.196736c0.716963,0.052462 0.898879,0.078694 0.941683,0.157388c0.085608,0.131157 0.074907,0.629557 -0.021402,1.232879l-0.085608,0.511514l-0.214019,0.039347c-0.203318,0.039347 -2.632431,0.131157 -5.553788,0.196736c-1.016589,0.026231 -1.433926,0.013116 -1.423225,-0.026231c0.010701,-0.039347 0.203318,-0.577092 0.438739,-1.193532l0.417337,-1.127953l0,0zm-2.760843,0.013117c0.502944,0 0.823972,0.02623 0.823972,0.078694c0,0.078694 -1.02729,2.111633 -1.1343,2.255906c-0.053505,0.065579 -1.25201,0.104926 -6.441966,0.209852l-1.359019,0.026231l0.192617,-0.327893c0.107009,-0.18362 0.321028,-0.563977 0.470841,-0.852523c0.171215,-0.327893 0.321028,-0.537745 0.374533,-0.550861c0.524346,-0.144273 2.546824,-0.472166 3.798834,-0.61644c1.112898,-0.131157 2.439814,-0.209852 3.274488,-0.222967l0,0zm11.193184,0.695134c0.192617,0 0.470841,0.065579 0.845374,0.170505c0.941683,0.262315 1.412524,0.511514 1.102197,0.603324c-0.299626,0.078694 -1.187804,0.209852 -1.626543,0.249199l-0.470841,0.039347l-0.096308,-0.18362c-0.053505,-0.104926 -0.107009,-0.288546 -0.128411,-0.406588c-0.042804,-0.327893 0.053505,-0.472166 0.374533,-0.472166l0,0z"/>
 </g>
</svg>